<?xml version="1.0" encoding="UTF-8" standalone="no"?>
<!DOCTYPE svg PUBLIC "-//W3C//DTD SVG 1.1//EN"
 "http://www.w3.org/Graphics/SVG/1.1/DTD/svg11.dtd">
<!-- Generated by graphviz version 2.47.0 (20210316.0004)
 -->
<!-- Title: dependencies Pages: 1 -->
<svg width="1162pt" height="211pt"
 viewBox="0.00 0.00 1162.00 211.00" xmlns="http://www.w3.org/2000/svg" xmlns:xlink="http://www.w3.org/1999/xlink">
<g id="graph0" class="graph" transform="scale(1 1) rotate(0) translate(4 207)">
<title>dependencies</title>
<polygon fill="white" stroke="transparent" points="-4,4 -4,-207 1158,-207 1158,4 -4,4"/>
<text text-anchor="start" x="556.01" y="-42.4" font-family="sans-serif" font-weight="bold" font-size="14.00">Legend</text>
<polygon fill="#ffffb3" stroke="transparent" points="343,-10 343,-30 363,-30 363,-10 343,-10"/>
<text text-anchor="start" x="366.63" y="-15.4" font-family="sans-serif" font-size="14.00"> &#160;Declarations</text>
<polygon fill="#8dd3c7" stroke="transparent" points="456,-10 456,-30 476,-30 476,-10 456,-10"/>
<text text-anchor="start" x="479.73" y="-15.4" font-family="sans-serif" font-size="14.00"> &#160;Module</text>
<polygon fill="#80b1d3" stroke="transparent" points="542,-10 542,-30 562,-30 562,-10 542,-10"/>
<text text-anchor="start" x="565.78" y="-15.4" font-family="sans-serif" font-size="14.00"> &#160;Bootstrap</text>
<polygon fill="#fdb462" stroke="transparent" points="639,-10 639,-30 659,-30 659,-10 639,-10"/>
<text text-anchor="start" x="662.67" y="-15.4" font-family="sans-serif" font-size="14.00"> &#160;Providers</text>
<polygon fill="#fb8072" stroke="transparent" points="735,-10 735,-30 755,-30 755,-10 735,-10"/>
<text text-anchor="start" x="758.73" y="-15.4" font-family="sans-serif" font-size="14.00"> &#160;Exports</text>
<g id="clust1" class="cluster">
<title>cluster_FuncionarioModule</title>
<polygon fill="none" stroke="black" stroke-dasharray="1,5" points="8,-70 8,-195 1146,-195 1146,-70 8,-70"/>
</g>
<g id="clust2" class="cluster">
<title>cluster_FuncionarioModule_declarations</title>
<polygon fill="none" stroke="black" points="336,-78 336,-130 1138,-130 1138,-78 336,-78"/>
</g>
<g id="clust10" class="cluster">
<title>cluster_FuncionarioModule_providers</title>
<polygon fill="none" stroke="black" points="138,-78 138,-130 328,-130 328,-78 138,-78"/>
</g>
<g id="clust7" class="cluster">
<title>cluster_FuncionarioModule_imports</title>
<polygon fill="none" stroke="black" points="16,-78 16,-130 130,-130 130,-78 16,-78"/>
</g>
<!-- FuncionarioCargoComponent -->
<g id="node1" class="node">
<title>FuncionarioCargoComponent</title>
<polygon fill="#ffffb3" stroke="black" points="1129.7,-122 946.3,-122 946.3,-86 1129.7,-86 1129.7,-122"/>
<text text-anchor="middle" x="1038" y="-99.8" font-family="Times,serif" font-size="14.00">FuncionarioCargoComponent</text>
</g>
<!-- FuncionarioModule -->
<g id="node5" class="node">
<title>FuncionarioModule</title>
<polygon fill="#8dd3c7" stroke="black" points="588.7,-187 585.7,-191 564.7,-191 561.7,-187 461.3,-187 461.3,-151 588.7,-151 588.7,-187"/>
<text text-anchor="middle" x="525" y="-164.8" font-family="Times,serif" font-size="14.00">FuncionarioModule</text>
</g>
<!-- FuncionarioCargoComponent&#45;&gt;FuncionarioModule -->
<g id="edge1" class="edge">
<title>FuncionarioCargoComponent&#45;&gt;FuncionarioModule</title>
<path fill="none" stroke="black" d="M1038,-122.28C1038,-143.32 1038,-175 1038,-175 1038,-175 598.68,-175 598.68,-175"/>
<polygon fill="black" stroke="black" points="598.68,-171.5 588.68,-175 598.68,-178.5 598.68,-171.5"/>
</g>
<!-- FuncionarioEmpresaComponent -->
<g id="node2" class="node">
<title>FuncionarioEmpresaComponent</title>
<polygon fill="#ffffb3" stroke="black" points="927.96,-122 730.04,-122 730.04,-86 927.96,-86 927.96,-122"/>
<text text-anchor="middle" x="829" y="-99.8" font-family="Times,serif" font-size="14.00">FuncionarioEmpresaComponent</text>
</g>
<!-- FuncionarioEmpresaComponent&#45;&gt;FuncionarioModule -->
<g id="edge2" class="edge">
<title>FuncionarioEmpresaComponent&#45;&gt;FuncionarioModule</title>
<path fill="none" stroke="black" d="M829,-122.02C829,-139.37 829,-163 829,-163 829,-163 598.73,-163 598.73,-163"/>
<polygon fill="black" stroke="black" points="598.73,-159.5 588.73,-163 598.73,-166.5 598.73,-159.5"/>
</g>
<!-- FuncionarioFormComponent -->
<g id="node3" class="node">
<title>FuncionarioFormComponent</title>
<polygon fill="#ffffb3" stroke="black" points="711.82,-122 532.18,-122 532.18,-86 711.82,-86 711.82,-122"/>
<text text-anchor="middle" x="622" y="-99.8" font-family="Times,serif" font-size="14.00">FuncionarioFormComponent</text>
</g>
<!-- FuncionarioFormComponent&#45;&gt;FuncionarioModule -->
<g id="edge3" class="edge">
<title>FuncionarioFormComponent&#45;&gt;FuncionarioModule</title>
<path fill="none" stroke="black" d="M560.47,-122.11C560.47,-122.11 560.47,-140.99 560.47,-140.99"/>
<polygon fill="black" stroke="black" points="556.97,-140.99 560.47,-150.99 563.97,-140.99 556.97,-140.99"/>
</g>
<!-- FuncionarioListComponent -->
<g id="node4" class="node">
<title>FuncionarioListComponent</title>
<polygon fill="#ffffb3" stroke="black" points="514.26,-122 343.74,-122 343.74,-86 514.26,-86 514.26,-122"/>
<text text-anchor="middle" x="429" y="-99.8" font-family="Times,serif" font-size="14.00">FuncionarioListComponent</text>
</g>
<!-- FuncionarioListComponent&#45;&gt;FuncionarioModule -->
<g id="edge4" class="edge">
<title>FuncionarioListComponent&#45;&gt;FuncionarioModule</title>
<path fill="none" stroke="black" d="M487.89,-122.11C487.89,-122.11 487.89,-140.99 487.89,-140.99"/>
<polygon fill="black" stroke="black" points="484.39,-140.99 487.89,-150.99 491.39,-140.99 484.39,-140.99"/>
</g>
<!-- SharedModule -->
<g id="node6" class="node">
<title>SharedModule</title>
<polygon fill="#8dd3c7" stroke="black" points="122.42,-122 119.42,-126 98.42,-126 95.42,-122 23.58,-122 23.58,-86 122.42,-86 122.42,-122"/>
<text text-anchor="middle" x="73" y="-99.8" font-family="Times,serif" font-size="14.00">SharedModule</text>
</g>
<!-- SharedModule&#45;&gt;FuncionarioModule -->
<g id="edge5" class="edge">
<title>SharedModule&#45;&gt;FuncionarioModule</title>
<path fill="none" stroke="black" d="M73,-122.28C73,-143.32 73,-175 73,-175 73,-175 451.2,-175 451.2,-175"/>
<polygon fill="black" stroke="black" points="451.2,-178.5 461.2,-175 451.2,-171.5 451.2,-178.5"/>
</g>
<!-- FuncionarioService -->
<g id="node7" class="node">
<title>FuncionarioService</title>
<ellipse fill="#fdb462" stroke="black" cx="233" cy="-104" rx="86.82" ry="18"/>
<text text-anchor="middle" x="233" y="-99.8" font-family="Times,serif" font-size="14.00">FuncionarioService</text>
</g>
<!-- FuncionarioService&#45;&gt;FuncionarioModule -->
<g id="edge6" class="edge">
<title>FuncionarioService&#45;&gt;FuncionarioModule</title>
<path fill="none" stroke="black" d="M233,-122.02C233,-139.37 233,-163 233,-163 233,-163 451.28,-163 451.28,-163"/>
<polygon fill="black" stroke="black" points="451.28,-166.5 461.28,-163 451.28,-159.5 451.28,-166.5"/>
</g>
</g>
</svg>
