<?xml version="1.0" encoding="UTF-8" standalone="no"?>
<!DOCTYPE svg PUBLIC "-//W3C//DTD SVG 1.1//EN"
 "http://www.w3.org/Graphics/SVG/1.1/DTD/svg11.dtd">
<!-- Generated by graphviz version 2.47.0 (20210316.0004)
 -->
<!-- Title: dependencies Pages: 1 -->
<svg width="632pt" height="211pt"
 viewBox="0.00 0.00 632.00 211.00" xmlns="http://www.w3.org/2000/svg" xmlns:xlink="http://www.w3.org/1999/xlink">
<g id="graph0" class="graph" transform="scale(1 1) rotate(0) translate(4 207)">
<title>dependencies</title>
<polygon fill="white" stroke="transparent" points="-4,4 -4,-207 628,-207 628,4 -4,4"/>
<text text-anchor="start" x="291.01" y="-42.4" font-family="sans-serif" font-weight="bold" font-size="14.00">Legend</text>
<polygon fill="#ffffb3" stroke="transparent" points="78,-10 78,-30 98,-30 98,-10 78,-10"/>
<text text-anchor="start" x="101.63" y="-15.4" font-family="sans-serif" font-size="14.00"> &#160;Declarations</text>
<polygon fill="#8dd3c7" stroke="transparent" points="191,-10 191,-30 211,-30 211,-10 191,-10"/>
<text text-anchor="start" x="214.73" y="-15.4" font-family="sans-serif" font-size="14.00"> &#160;Module</text>
<polygon fill="#80b1d3" stroke="transparent" points="277,-10 277,-30 297,-30 297,-10 277,-10"/>
<text text-anchor="start" x="300.78" y="-15.4" font-family="sans-serif" font-size="14.00"> &#160;Bootstrap</text>
<polygon fill="#fdb462" stroke="transparent" points="374,-10 374,-30 394,-30 394,-10 374,-10"/>
<text text-anchor="start" x="397.67" y="-15.4" font-family="sans-serif" font-size="14.00"> &#160;Providers</text>
<polygon fill="#fb8072" stroke="transparent" points="470,-10 470,-30 490,-30 490,-10 470,-10"/>
<text text-anchor="start" x="493.73" y="-15.4" font-family="sans-serif" font-size="14.00"> &#160;Exports</text>
<g id="clust1" class="cluster">
<title>cluster_CargoModule</title>
<polygon fill="none" stroke="black" stroke-dasharray="1,5" points="8,-70 8,-195 616,-195 616,-70 8,-70"/>
</g>
<g id="clust5" class="cluster">
<title>cluster_CargoModule_imports</title>
<polygon fill="none" stroke="black" points="494,-78 494,-130 608,-130 608,-78 494,-78"/>
</g>
<g id="clust8" class="cluster">
<title>cluster_CargoModule_providers</title>
<polygon fill="none" stroke="black" points="342,-78 342,-130 486,-130 486,-78 342,-78"/>
</g>
<g id="clust2" class="cluster">
<title>cluster_CargoModule_declarations</title>
<polygon fill="none" stroke="black" points="16,-78 16,-130 334,-130 334,-78 16,-78"/>
</g>
<!-- CargoFormComponent -->
<g id="node1" class="node">
<title>CargoFormComponent</title>
<polygon fill="#ffffb3" stroke="black" points="325.88,-122 180.12,-122 180.12,-86 325.88,-86 325.88,-122"/>
<text text-anchor="middle" x="253" y="-99.8" font-family="Times,serif" font-size="14.00">CargoFormComponent</text>
</g>
<!-- CargoModule -->
<g id="node3" class="node">
<title>CargoModule</title>
<polygon fill="#8dd3c7" stroke="black" points="379.76,-187 376.76,-191 355.76,-191 352.76,-187 286.24,-187 286.24,-151 379.76,-151 379.76,-187"/>
<text text-anchor="middle" x="333" y="-164.8" font-family="Times,serif" font-size="14.00">CargoModule</text>
</g>
<!-- CargoFormComponent&#45;&gt;CargoModule -->
<g id="edge1" class="edge">
<title>CargoFormComponent&#45;&gt;CargoModule</title>
<path fill="none" stroke="black" d="M306.03,-122.11C306.03,-122.11 306.03,-140.99 306.03,-140.99"/>
<polygon fill="black" stroke="black" points="302.53,-140.99 306.03,-150.99 309.53,-140.99 302.53,-140.99"/>
</g>
<!-- CargoListComponent -->
<g id="node2" class="node">
<title>CargoListComponent</title>
<polygon fill="#ffffb3" stroke="black" points="161.82,-122 24.18,-122 24.18,-86 161.82,-86 161.82,-122"/>
<text text-anchor="middle" x="93" y="-99.8" font-family="Times,serif" font-size="14.00">CargoListComponent</text>
</g>
<!-- CargoListComponent&#45;&gt;CargoModule -->
<g id="edge2" class="edge">
<title>CargoListComponent&#45;&gt;CargoModule</title>
<path fill="none" stroke="black" d="M93,-122.11C93,-141.34 93,-169 93,-169 93,-169 276.16,-169 276.16,-169"/>
<polygon fill="black" stroke="black" points="276.16,-172.5 286.16,-169 276.16,-165.5 276.16,-172.5"/>
</g>
<!-- SharedModule -->
<g id="node4" class="node">
<title>SharedModule</title>
<polygon fill="#8dd3c7" stroke="black" points="600.42,-122 597.42,-126 576.42,-126 573.42,-122 501.58,-122 501.58,-86 600.42,-86 600.42,-122"/>
<text text-anchor="middle" x="551" y="-99.8" font-family="Times,serif" font-size="14.00">SharedModule</text>
</g>
<!-- SharedModule&#45;&gt;CargoModule -->
<g id="edge3" class="edge">
<title>SharedModule&#45;&gt;CargoModule</title>
<path fill="none" stroke="black" d="M551,-122.11C551,-141.34 551,-169 551,-169 551,-169 389.77,-169 389.77,-169"/>
<polygon fill="black" stroke="black" points="389.77,-165.5 379.77,-169 389.77,-172.5 389.77,-165.5"/>
</g>
<!-- CargoService -->
<g id="node5" class="node">
<title>CargoService</title>
<ellipse fill="#fdb462" stroke="black" cx="414" cy="-104" rx="63.68" ry="18"/>
<text text-anchor="middle" x="414" y="-99.8" font-family="Times,serif" font-size="14.00">CargoService</text>
</g>
<!-- CargoService&#45;&gt;CargoModule -->
<g id="edge4" class="edge">
<title>CargoService&#45;&gt;CargoModule</title>
<path fill="none" stroke="black" d="M365.15,-115.62C365.15,-115.62 365.15,-140.85 365.15,-140.85"/>
<polygon fill="black" stroke="black" points="361.65,-140.85 365.15,-150.85 368.65,-140.85 361.65,-140.85"/>
</g>
</g>
</svg>
