<?xml version="1.0" encoding="UTF-8" standalone="no"?>
<!DOCTYPE svg PUBLIC "-//W3C//DTD SVG 1.1//EN"
 "http://www.w3.org/Graphics/SVG/1.1/DTD/svg11.dtd">
<!-- Generated by graphviz version 2.47.0 (20210316.0004)
 -->
<!-- Title: dependencies Pages: 1 -->
<svg width="1132pt" height="284pt"
 viewBox="0.00 0.00 1132.00 284.00" xmlns="http://www.w3.org/2000/svg" xmlns:xlink="http://www.w3.org/1999/xlink">
<g id="graph0" class="graph" transform="scale(1 1) rotate(0) translate(4 280)">
<title>dependencies</title>
<polygon fill="white" stroke="transparent" points="-4,4 -4,-280 1128,-280 1128,4 -4,4"/>
<text text-anchor="start" x="541.01" y="-42.4" font-family="sans-serif" font-weight="bold" font-size="14.00">Legend</text>
<polygon fill="#ffffb3" stroke="transparent" points="328,-10 328,-30 348,-30 348,-10 328,-10"/>
<text text-anchor="start" x="351.63" y="-15.4" font-family="sans-serif" font-size="14.00"> &#160;Declarations</text>
<polygon fill="#8dd3c7" stroke="transparent" points="441,-10 441,-30 461,-30 461,-10 441,-10"/>
<text text-anchor="start" x="464.73" y="-15.4" font-family="sans-serif" font-size="14.00"> &#160;Module</text>
<polygon fill="#80b1d3" stroke="transparent" points="527,-10 527,-30 547,-30 547,-10 527,-10"/>
<text text-anchor="start" x="550.78" y="-15.4" font-family="sans-serif" font-size="14.00"> &#160;Bootstrap</text>
<polygon fill="#fdb462" stroke="transparent" points="624,-10 624,-30 644,-30 644,-10 624,-10"/>
<text text-anchor="start" x="647.67" y="-15.4" font-family="sans-serif" font-size="14.00"> &#160;Providers</text>
<polygon fill="#fb8072" stroke="transparent" points="720,-10 720,-30 740,-30 740,-10 720,-10"/>
<text text-anchor="start" x="743.73" y="-15.4" font-family="sans-serif" font-size="14.00"> &#160;Exports</text>
<g id="clust1" class="cluster">
<title>cluster_AppModule</title>
<polygon fill="none" stroke="black" stroke-dasharray="1,5" points="8,-70 8,-268 1116,-268 1116,-70 8,-70"/>
</g>
<g id="clust2" class="cluster">
<title>cluster_AppModule_declarations</title>
<polygon fill="none" stroke="black" points="697,-78 697,-130 1108,-130 1108,-78 697,-78"/>
</g>
<g id="clust9" class="cluster">
<title>cluster_AppModule_providers</title>
<polygon fill="none" stroke="black" points="511,-78 511,-130 689,-130 689,-78 511,-78"/>
</g>
<g id="clust6" class="cluster">
<title>cluster_AppModule_imports</title>
<polygon fill="none" stroke="black" points="16,-78 16,-130 503,-130 503,-78 16,-78"/>
</g>
<g id="clust8" class="cluster">
<title>cluster_AppModule_bootstrap</title>
<polygon fill="none" stroke="black" points="462,-208 462,-260 586,-260 586,-208 462,-208"/>
</g>
<!-- AppComponent -->
<g id="node1" class="node">
<title>AppComponent</title>
<polygon fill="#ffffb3" stroke="black" points="1099.94,-122 994.06,-122 994.06,-86 1099.94,-86 1099.94,-122"/>
<text text-anchor="middle" x="1047" y="-99.8" font-family="Times,serif" font-size="14.00">AppComponent</text>
</g>
<!-- AppModule -->
<g id="node4" class="node">
<title>AppModule</title>
<polygon fill="#8dd3c7" stroke="black" points="565.66,-187 562.66,-191 541.66,-191 538.66,-187 482.34,-187 482.34,-151 565.66,-151 565.66,-187"/>
<text text-anchor="middle" x="524" y="-164.8" font-family="Times,serif" font-size="14.00">AppModule</text>
</g>
<!-- AppComponent&#45;&gt;AppModule -->
<g id="edge1" class="edge">
<title>AppComponent&#45;&gt;AppModule</title>
<path fill="none" stroke="black" d="M1047,-122.29C1047,-144.21 1047,-178 1047,-178 1047,-178 575.92,-178 575.92,-178"/>
<polygon fill="black" stroke="black" points="575.92,-174.5 565.92,-178 575.92,-181.5 575.92,-174.5"/>
</g>
<!-- HomeComponent -->
<g id="node2" class="node">
<title>HomeComponent</title>
<polygon fill="#ffffb3" stroke="black" points="976.55,-122 861.45,-122 861.45,-86 976.55,-86 976.55,-122"/>
<text text-anchor="middle" x="919" y="-99.8" font-family="Times,serif" font-size="14.00">HomeComponent</text>
</g>
<!-- HomeComponent&#45;&gt;AppModule -->
<g id="edge2" class="edge">
<title>HomeComponent&#45;&gt;AppModule</title>
<path fill="none" stroke="black" d="M919,-122.11C919,-141.34 919,-169 919,-169 919,-169 575.9,-169 575.9,-169"/>
<polygon fill="black" stroke="black" points="575.9,-165.5 565.9,-169 575.9,-172.5 575.9,-165.5"/>
</g>
<!-- NotFoundComponent -->
<g id="node3" class="node">
<title>NotFoundComponent</title>
<polygon fill="#ffffb3" stroke="black" points="843.11,-122 704.89,-122 704.89,-86 843.11,-86 843.11,-122"/>
<text text-anchor="middle" x="774" y="-99.8" font-family="Times,serif" font-size="14.00">NotFoundComponent</text>
</g>
<!-- NotFoundComponent&#45;&gt;AppModule -->
<g id="edge3" class="edge">
<title>NotFoundComponent&#45;&gt;AppModule</title>
<path fill="none" stroke="black" d="M774,-122.03C774,-138.4 774,-160 774,-160 774,-160 575.84,-160 575.84,-160"/>
<polygon fill="black" stroke="black" points="575.84,-156.5 565.84,-160 575.84,-163.5 575.84,-156.5"/>
</g>
<!-- AppComponent  -->
<g id="node9" class="node">
<title>AppComponent </title>
<polygon fill="#80b1d3" stroke="black" points="578.44,-252 469.56,-252 469.56,-216 578.44,-216 578.44,-252"/>
<text text-anchor="middle" x="524" y="-229.8" font-family="Times,serif" font-size="14.00">AppComponent </text>
</g>
<!-- AppModule&#45;&gt;AppComponent  -->
<g id="edge8" class="edge">
<title>AppModule&#45;&gt;AppComponent </title>
<path fill="none" stroke="black" stroke-dasharray="1,5" d="M524,-187.11C524,-187.11 524,-205.99 524,-205.99"/>
<polygon fill="black" stroke="black" points="520.5,-205.99 524,-215.99 527.5,-205.99 520.5,-205.99"/>
</g>
<!-- CargoModule -->
<g id="node5" class="node">
<title>CargoModule</title>
<polygon fill="#8dd3c7" stroke="black" points="494.76,-122 491.76,-126 470.76,-126 467.76,-122 401.24,-122 401.24,-86 494.76,-86 494.76,-122"/>
<text text-anchor="middle" x="448" y="-99.8" font-family="Times,serif" font-size="14.00">CargoModule</text>
</g>
<!-- CargoModule&#45;&gt;AppModule -->
<g id="edge4" class="edge">
<title>CargoModule&#45;&gt;AppModule</title>
<path fill="none" stroke="black" d="M488.53,-122.11C488.53,-122.11 488.53,-140.99 488.53,-140.99"/>
<polygon fill="black" stroke="black" points="485.03,-140.99 488.53,-150.99 492.03,-140.99 485.03,-140.99"/>
</g>
<!-- CoreModule -->
<g id="node6" class="node">
<title>CoreModule</title>
<polygon fill="#8dd3c7" stroke="black" points="383.26,-122 380.26,-126 359.26,-126 356.26,-122 296.74,-122 296.74,-86 383.26,-86 383.26,-122"/>
<text text-anchor="middle" x="340" y="-99.8" font-family="Times,serif" font-size="14.00">CoreModule</text>
</g>
<!-- CoreModule&#45;&gt;AppModule -->
<g id="edge5" class="edge">
<title>CoreModule&#45;&gt;AppModule</title>
<path fill="none" stroke="black" d="M340,-122.03C340,-138.4 340,-160 340,-160 340,-160 472.25,-160 472.25,-160"/>
<polygon fill="black" stroke="black" points="472.25,-163.5 482.25,-160 472.25,-156.5 472.25,-163.5"/>
</g>
<!-- EmpresaModule -->
<g id="node7" class="node">
<title>EmpresaModule</title>
<polygon fill="#8dd3c7" stroke="black" points="278.03,-122 275.03,-126 254.03,-126 251.03,-122 169.97,-122 169.97,-86 278.03,-86 278.03,-122"/>
<text text-anchor="middle" x="224" y="-99.8" font-family="Times,serif" font-size="14.00">EmpresaModule</text>
</g>
<!-- EmpresaModule&#45;&gt;AppModule -->
<g id="edge6" class="edge">
<title>EmpresaModule&#45;&gt;AppModule</title>
<path fill="none" stroke="black" d="M224,-122.11C224,-141.34 224,-169 224,-169 224,-169 472.29,-169 472.29,-169"/>
<polygon fill="black" stroke="black" points="472.29,-172.5 482.29,-169 472.29,-165.5 472.29,-172.5"/>
</g>
<!-- FuncionarioModule -->
<g id="node8" class="node">
<title>FuncionarioModule</title>
<polygon fill="#8dd3c7" stroke="black" points="151.7,-122 148.7,-126 127.7,-126 124.7,-122 24.3,-122 24.3,-86 151.7,-86 151.7,-122"/>
<text text-anchor="middle" x="88" y="-99.8" font-family="Times,serif" font-size="14.00">FuncionarioModule</text>
</g>
<!-- FuncionarioModule&#45;&gt;AppModule -->
<g id="edge7" class="edge">
<title>FuncionarioModule&#45;&gt;AppModule</title>
<path fill="none" stroke="black" d="M88,-122.29C88,-144.21 88,-178 88,-178 88,-178 472.19,-178 472.19,-178"/>
<polygon fill="black" stroke="black" points="472.19,-181.5 482.19,-178 472.19,-174.5 472.19,-181.5"/>
</g>
<!-- LoaderInterceptor -->
<g id="node10" class="node">
<title>LoaderInterceptor</title>
<ellipse fill="#fdb462" stroke="black" cx="600" cy="-104" rx="80.98" ry="18"/>
<text text-anchor="middle" x="600" y="-99.8" font-family="Times,serif" font-size="14.00">LoaderInterceptor</text>
</g>
<!-- LoaderInterceptor&#45;&gt;AppModule -->
<g id="edge9" class="edge">
<title>LoaderInterceptor&#45;&gt;AppModule</title>
<path fill="none" stroke="black" d="M542.54,-116.84C542.54,-116.84 542.54,-140.52 542.54,-140.52"/>
<polygon fill="black" stroke="black" points="539.04,-140.52 542.54,-150.52 546.04,-140.52 539.04,-140.52"/>
</g>
</g>
</svg>
