<?xml version="1.0" encoding="UTF-8" standalone="no"?>
<!DOCTYPE svg PUBLIC "-//W3C//DTD SVG 1.1//EN"
 "http://www.w3.org/Graphics/SVG/1.1/DTD/svg11.dtd">
<!-- Generated by graphviz version 2.47.0 (20210316.0004)
 -->
<!-- Title: dependencies Pages: 1 -->
<svg width="680pt" height="211pt"
 viewBox="0.00 0.00 680.00 211.00" xmlns="http://www.w3.org/2000/svg" xmlns:xlink="http://www.w3.org/1999/xlink">
<g id="graph0" class="graph" transform="scale(1 1) rotate(0) translate(4 207)">
<title>dependencies</title>
<polygon fill="white" stroke="transparent" points="-4,4 -4,-207 676,-207 676,4 -4,4"/>
<text text-anchor="start" x="315.01" y="-42.4" font-family="sans-serif" font-weight="bold" font-size="14.00">Legend</text>
<polygon fill="#ffffb3" stroke="transparent" points="102,-10 102,-30 122,-30 122,-10 102,-10"/>
<text text-anchor="start" x="125.63" y="-15.4" font-family="sans-serif" font-size="14.00"> &#160;Declarations</text>
<polygon fill="#8dd3c7" stroke="transparent" points="215,-10 215,-30 235,-30 235,-10 215,-10"/>
<text text-anchor="start" x="238.73" y="-15.4" font-family="sans-serif" font-size="14.00"> &#160;Module</text>
<polygon fill="#80b1d3" stroke="transparent" points="301,-10 301,-30 321,-30 321,-10 301,-10"/>
<text text-anchor="start" x="324.78" y="-15.4" font-family="sans-serif" font-size="14.00"> &#160;Bootstrap</text>
<polygon fill="#fdb462" stroke="transparent" points="398,-10 398,-30 418,-30 418,-10 398,-10"/>
<text text-anchor="start" x="421.67" y="-15.4" font-family="sans-serif" font-size="14.00"> &#160;Providers</text>
<polygon fill="#fb8072" stroke="transparent" points="494,-10 494,-30 514,-30 514,-10 494,-10"/>
<text text-anchor="start" x="517.73" y="-15.4" font-family="sans-serif" font-size="14.00"> &#160;Exports</text>
<g id="clust1" class="cluster">
<title>cluster_EmpresaModule</title>
<polygon fill="none" stroke="black" stroke-dasharray="1,5" points="8,-70 8,-195 664,-195 664,-70 8,-70"/>
</g>
<g id="clust2" class="cluster">
<title>cluster_EmpresaModule_declarations</title>
<polygon fill="none" stroke="black" points="310,-78 310,-130 656,-130 656,-78 310,-78"/>
</g>
<g id="clust5" class="cluster">
<title>cluster_EmpresaModule_imports</title>
<polygon fill="none" stroke="black" points="188,-78 188,-130 302,-130 302,-78 188,-78"/>
</g>
<g id="clust8" class="cluster">
<title>cluster_EmpresaModule_providers</title>
<polygon fill="none" stroke="black" points="16,-78 16,-130 180,-130 180,-78 16,-78"/>
</g>
<!-- EmpresaFormComponent -->
<g id="node1" class="node">
<title>EmpresaFormComponent</title>
<polygon fill="#ffffb3" stroke="black" points="648.14,-122 487.86,-122 487.86,-86 648.14,-86 648.14,-122"/>
<text text-anchor="middle" x="568" y="-99.8" font-family="Times,serif" font-size="14.00">EmpresaFormComponent</text>
</g>
<!-- EmpresaModule -->
<g id="node3" class="node">
<title>EmpresaModule</title>
<polygon fill="#8dd3c7" stroke="black" points="373.03,-187 370.03,-191 349.03,-191 346.03,-187 264.97,-187 264.97,-151 373.03,-151 373.03,-187"/>
<text text-anchor="middle" x="319" y="-164.8" font-family="Times,serif" font-size="14.00">EmpresaModule</text>
</g>
<!-- EmpresaFormComponent&#45;&gt;EmpresaModule -->
<g id="edge1" class="edge">
<title>EmpresaFormComponent&#45;&gt;EmpresaModule</title>
<path fill="none" stroke="black" d="M568,-122.11C568,-141.34 568,-169 568,-169 568,-169 383.03,-169 383.03,-169"/>
<polygon fill="black" stroke="black" points="383.03,-165.5 373.03,-169 383.03,-172.5 383.03,-165.5"/>
</g>
<!-- EmpresaListComponent -->
<g id="node2" class="node">
<title>EmpresaListComponent</title>
<polygon fill="#ffffb3" stroke="black" points="470.09,-122 317.91,-122 317.91,-86 470.09,-86 470.09,-122"/>
<text text-anchor="middle" x="394" y="-99.8" font-family="Times,serif" font-size="14.00">EmpresaListComponent</text>
</g>
<!-- EmpresaListComponent&#45;&gt;EmpresaModule -->
<g id="edge2" class="edge">
<title>EmpresaListComponent&#45;&gt;EmpresaModule</title>
<path fill="none" stroke="black" d="M345.61,-122.11C345.61,-122.11 345.61,-140.99 345.61,-140.99"/>
<polygon fill="black" stroke="black" points="342.11,-140.99 345.61,-150.99 349.11,-140.99 342.11,-140.99"/>
</g>
<!-- SharedModule -->
<g id="node4" class="node">
<title>SharedModule</title>
<polygon fill="#8dd3c7" stroke="black" points="294.42,-122 291.42,-126 270.42,-126 267.42,-122 195.58,-122 195.58,-86 294.42,-86 294.42,-122"/>
<text text-anchor="middle" x="245" y="-99.8" font-family="Times,serif" font-size="14.00">SharedModule</text>
</g>
<!-- SharedModule&#45;&gt;EmpresaModule -->
<g id="edge3" class="edge">
<title>SharedModule&#45;&gt;EmpresaModule</title>
<path fill="none" stroke="black" d="M279.47,-122.11C279.47,-122.11 279.47,-140.99 279.47,-140.99"/>
<polygon fill="black" stroke="black" points="275.97,-140.99 279.47,-150.99 282.97,-140.99 275.97,-140.99"/>
</g>
<!-- EmpresaService -->
<g id="node5" class="node">
<title>EmpresaService</title>
<ellipse fill="#fdb462" stroke="black" cx="98" cy="-104" rx="73.55" ry="18"/>
<text text-anchor="middle" x="98" y="-99.8" font-family="Times,serif" font-size="14.00">EmpresaService</text>
</g>
<!-- EmpresaService&#45;&gt;EmpresaModule -->
<g id="edge4" class="edge">
<title>EmpresaService&#45;&gt;EmpresaModule</title>
<path fill="none" stroke="black" d="M98,-122.11C98,-141.34 98,-169 98,-169 98,-169 254.94,-169 254.94,-169"/>
<polygon fill="black" stroke="black" points="254.94,-172.5 264.94,-169 254.94,-165.5 254.94,-172.5"/>
</g>
</g>
</svg>
